<svg width="64" height="30" viewBox="0 0 64 30" fill="none" xmlns="http://www.w3.org/2000/svg">
<path fill-rule="evenodd" clip-rule="evenodd" d="M20.8549 15.6212C19.701 10.8569 15.4519 7.48952 10.5501 7.45203C4.63466 7.57561 -0.0741014 12.4468 0.000883262 18.3637C-0.0366091 24.2916 4.72075 29.1365 10.6487 29.2073C13.5939 29.1892 16.392 27.9214 18.3471 25.7205C18.5415 25.4053 18.4888 24.9956 18.2194 24.7415L16.2017 22.978L15.9671 22.7822C15.6338 22.4614 15.1061 22.4614 14.7715 22.7822L14.684 22.8808C13.5898 23.9542 12.122 24.561 10.589 24.5749C7.17025 24.5916 4.38471 21.8324 4.36943 18.4137C4.35277 14.9949 7.11193 12.2094 10.5307 12.1941C11.5916 12.1913 12.6344 12.4746 13.5481 13.0176L13.7147 13.1259C14.2341 13.4591 14.6937 13.8799 14.048 14.3215L13.8522 14.4492L8.56302 18.2693L8.23947 18.5039C7.78956 18.808 8.15199 19.2968 8.82685 19.1705L9.1504 19.1024L19.9246 17.0653C20.062 17.0528 20.1926 17.0056 20.3064 16.9279C20.43 16.8487 20.5383 16.7487 20.63 16.6335C20.7425 16.4849 20.823 16.3155 20.8647 16.1336C20.8897 15.9614 20.8897 15.7864 20.8647 15.6142" fill="white"/>
<path fill-rule="evenodd" clip-rule="evenodd" d="M53.258 7.26587C47.3689 7.42556 42.7004 12.2871 42.7768 18.1775C42.7379 24.0791 47.455 28.9128 53.3552 29.0211C59.279 28.8975 63.9919 24.0138 63.9044 18.09C63.9044 12.1885 59.1582 7.38529 53.2566 7.31586L53.258 7.26587ZM53.2566 24.4276C49.8392 24.5304 46.9857 21.8434 46.8829 18.4261C46.7801 15.0087 49.4671 12.1551 52.8845 12.0524C56.3018 11.9496 59.1554 14.6366 59.2581 18.0539C59.2595 18.1081 59.2609 18.1636 59.2609 18.2178C59.3095 21.5879 56.6267 24.3638 53.2566 24.4276Z" fill="white"/>
<path fill-rule="evenodd" clip-rule="evenodd" d="M17.4168 5.68842L21.1785 5.01217C22.3435 4.81638 22.7657 4.7775 23.5488 5.91338C26.1469 9.54874 28.5089 13.348 30.621 17.286C30.7807 17.6096 30.964 17.9206 31.1695 18.2164C31.4639 18.7691 31.9693 19.1787 32.5706 19.3523C32.8622 19.4162 33.1677 19.3745 33.4329 19.2343C33.8148 19.0079 34.1147 18.6649 34.2855 18.2553C34.373 18.0789 34.4327 17.9317 34.5202 17.7748C34.7549 17.3041 34.9604 16.7959 35.1576 16.3446C36.0491 14.2783 36.9794 12.1913 37.9487 10.1445C39.1581 7.49361 40.5523 4.93025 42.1214 2.47519C42.5422 1.68924 43.3212 1.15741 44.2071 1.05465L49.5852 0.077074C50.5155 -0.108999 50.7808 0.0770739 50.9169 0.263147C51.0543 0.44922 50.9169 0.949118 50.0351 1.8406C43.7864 8.18791 40.0344 16.171 37.3016 23.3904C37.0072 24.1346 36.7628 24.8984 36.4684 25.6427C36.2837 26.1926 36.0268 26.7174 35.7047 27.2007C35.5131 27.4576 35.277 27.6798 35.009 27.8575C34.2119 28.3366 33.2677 28.5032 32.354 28.3282C31.7305 28.2213 31.1487 27.9394 30.6793 27.5159C30.085 26.8438 29.6073 26.0745 29.2685 25.2427C27.6327 22.1475 25.9872 18.8954 23.9404 15.703C21.9714 12.6245 19.733 9.72649 17.2501 7.0437C16.3975 6.15222 16.4767 5.90782 17.3779 5.71203" fill="white"/>
</svg>
